<svg width="192" height="192" viewBox="0 0 192 192" fill="none" xmlns="http://www.w3.org/2000/svg">
<rect width="192" height="192" fill="url(#paint0_linear_64_13)"/>
<path d="M11.4375 98.2216V92.3125L32.0057 83.6761V90.1392L18.4261 95.2102L18.6392 94.8977V95.6506L18.4261 95.3239L32.0057 100.409V106.858L11.4375 98.2216ZM51.1286 76.5455L41.7536 111.375H35.8303L45.2053 76.5455H51.1286ZM178.803 98.2216L158.234 106.858V100.409L171.814 95.3239L171.615 95.6506V94.8977L171.814 95.2102L158.234 90.1392V83.6761L178.803 92.3125V98.2216Z" fill="white"/>
<path d="M64.4702 107H53.7173V77.9091H64.456C67.42 77.9091 69.9721 78.4915 72.1122 79.6562C74.2618 80.8116 75.919 82.4782 77.0838 84.6562C78.2486 86.8248 78.831 89.4195 78.831 92.4403C78.831 95.4706 78.2486 98.0748 77.0838 100.253C75.9285 102.431 74.276 104.102 72.1264 105.267C69.9768 106.422 67.4247 107 64.4702 107ZM60.7486 101.006H64.2003C65.8291 101.006 67.2069 100.731 68.3338 100.182C69.4702 99.6231 70.3272 98.7188 70.9048 97.4688C71.492 96.2093 71.7855 94.5331 71.7855 92.4403C71.7855 90.3475 71.492 88.6809 70.9048 87.4403C70.3177 86.1903 69.4512 85.2907 68.3054 84.7415C67.169 84.1828 65.7675 83.9034 64.1009 83.9034H60.7486V101.006ZM93.1207 107.412C90.8291 107.412 88.8594 106.943 87.2116 106.006C85.5734 105.059 84.3092 103.742 83.419 102.057C82.5384 100.362 82.098 98.3968 82.098 96.1619C82.098 93.9176 82.5384 91.9527 83.419 90.267C84.3092 88.572 85.5734 87.2557 87.2116 86.3182C88.8594 85.3712 90.8291 84.8977 93.1207 84.8977C95.4124 84.8977 97.3774 85.3712 99.0156 86.3182C100.663 87.2557 101.928 88.572 102.808 90.267C103.698 91.9527 104.143 93.9176 104.143 96.1619C104.143 98.3968 103.698 100.362 102.808 102.057C101.928 103.742 100.663 105.059 99.0156 106.006C97.3774 106.943 95.4124 107.412 93.1207 107.412ZM93.1634 102.17C93.9967 102.17 94.7022 101.915 95.2798 101.403C95.8575 100.892 96.2978 100.182 96.6009 99.2727C96.9134 98.3636 97.0696 97.3125 97.0696 96.1193C97.0696 94.9072 96.9134 93.8466 96.6009 92.9375C96.2978 92.0284 95.8575 91.3182 95.2798 90.8068C94.7022 90.2955 93.9967 90.0398 93.1634 90.0398C92.3016 90.0398 91.5724 90.2955 90.9759 90.8068C90.3887 91.3182 89.9389 92.0284 89.6264 92.9375C89.3234 93.8466 89.1719 94.9072 89.1719 96.1193C89.1719 97.3125 89.3234 98.3636 89.6264 99.2727C89.9389 100.182 90.3887 100.892 90.9759 101.403C91.5724 101.915 92.3016 102.17 93.1634 102.17ZM117.886 107.412C115.585 107.412 113.611 106.938 111.963 105.991C110.325 105.045 109.065 103.728 108.185 102.043C107.304 100.348 106.864 98.3873 106.864 96.1619C106.864 93.9271 107.304 91.9669 108.185 90.2812C109.075 88.5862 110.339 87.2652 111.977 86.3182C113.625 85.3712 115.59 84.8977 117.872 84.8977C119.889 84.8977 121.646 85.2623 123.142 85.9915C124.648 86.7206 125.822 87.7528 126.665 89.0881C127.517 90.4138 127.967 91.9716 128.014 93.7614H121.523C121.39 92.6439 121.011 91.768 120.386 91.1335C119.771 90.4991 118.966 90.1818 117.972 90.1818C117.167 90.1818 116.461 90.4091 115.855 90.8636C115.249 91.3087 114.776 91.9716 114.435 92.8523C114.103 93.7235 113.938 94.803 113.938 96.0909C113.938 97.3788 114.103 98.4678 114.435 99.358C114.776 100.239 115.249 100.906 115.855 101.361C116.461 101.806 117.167 102.028 117.972 102.028C118.616 102.028 119.184 101.891 119.676 101.616C120.178 101.342 120.59 100.939 120.912 100.409C121.234 99.8693 121.438 99.2159 121.523 98.4489H128.014C127.948 100.248 127.498 101.82 126.665 103.165C125.841 104.509 124.681 105.556 123.185 106.304C121.698 107.043 119.932 107.412 117.886 107.412ZM145.646 97.5824V85.1818H152.577V107H145.958V102.938H145.731C145.248 104.273 144.424 105.333 143.259 106.119C142.104 106.896 140.707 107.284 139.069 107.284C137.582 107.284 136.275 106.943 135.148 106.261C134.022 105.58 133.146 104.628 132.521 103.406C131.896 102.175 131.578 100.736 131.569 99.0881V85.1818H138.515V97.7244C138.524 98.9081 138.837 99.8409 139.452 100.523C140.068 101.205 140.906 101.545 141.967 101.545C142.658 101.545 143.278 101.394 143.827 101.091C144.386 100.778 144.826 100.329 145.148 99.7415C145.48 99.1449 145.646 98.4252 145.646 97.5824Z" fill="url(#paint1_linear_64_13)"/>
<defs>
<linearGradient id="paint0_linear_64_13" x1="96" y1="0" x2="96" y2="192" gradientUnits="userSpaceOnUse">
<stop stop-color="#2A3036"/>
<stop offset="0.5" stop-color="#00271F"/>
<stop offset="1" stop-color="#2A3036"/>
</linearGradient>
<linearGradient id="paint1_linear_64_13" x1="8" y1="92" x2="183" y2="92" gradientUnits="userSpaceOnUse">
<stop stop-color="#FFC700"/>
<stop offset="1" stop-color="#CC00FF"/>
</linearGradient>
</defs>
</svg>
