<svg width="192" height="192" viewBox="0 0 192 192" fill="none" xmlns="http://www.w3.org/2000/svg">
<g clip-path="url(#clip0_66_10)">
<path d="M177.6 17.3038C173.039 13.4987 167.689 10.757 161.936 9.27772C156.184 7.79847 150.174 7.61882 144.344 8.75181L130.232 12.2078C122.867 13.5574 116.209 17.4465 111.416 23.1984C106.623 28.9503 103.999 36.2007 104 43.6878V167.424C98.6948 168.2 93.3051 168.2 87.9999 167.424V43.6878C88.0265 36.2697 85.4627 29.0751 80.7511 23.3454C76.0394 17.6158 69.4755 13.7106 62.1919 12.3038L47.1999 8.65581C41.4332 7.60056 35.505 7.82581 29.835 9.31561C24.1649 10.8054 18.8917 13.5234 14.3885 17.277C9.88527 21.0307 6.26223 25.7284 3.7758 31.0375C1.28936 36.3466 0.000329464 42.1373 -6.10352e-05 47.9998L-6.10352e-05 134.344C0.000398612 143.71 3.28775 152.779 9.28901 159.971C15.2903 167.162 23.6248 172.019 32.8399 173.696L83.1279 182.84C91.6396 184.386 100.36 184.386 108.872 182.84L159.2 173.696C168.408 172.011 176.733 167.15 182.726 159.96C188.72 152.769 192.001 143.704 192 134.344V47.9998C192.004 42.1394 190.715 36.3502 188.226 31.0446C185.737 25.7389 182.109 21.0473 177.6 17.3038V17.3038Z" fill="url(#paint0_linear_66_10)"/>
</g>
<defs>
<linearGradient id="paint0_linear_66_10" x1="192" y1="96.0011" x2="-6.10352e-05" y2="96.0011" gradientUnits="userSpaceOnUse">
<stop stop-color="#CC00FF"/>
<stop offset="1" stop-color="#FFC700"/>
</linearGradient>
<clipPath id="clip0_66_10">
<rect width="192" height="192" fill="white"/>
</clipPath>
</defs>
</svg>
