<svg width="39" height="38" viewBox="0 0 39 38" fill="none" xmlns="http://www.w3.org/2000/svg">
<path fill-rule="evenodd" clip-rule="evenodd" d="M19.5 0C8.72625 0 0 8.71756 0 19.4806C0 28.1007 5.58187 35.3816 13.3331 37.9628C14.3081 38.1332 14.6737 37.5488 14.6737 37.0375C14.6737 36.5748 14.6494 35.0407 14.6494 33.4092C9.75 34.3102 8.4825 32.216 8.0925 31.1202C7.87313 30.5602 6.9225 28.8313 6.09375 28.3686C5.41125 28.0033 4.43625 27.1024 6.06938 27.078C7.605 27.0537 8.70187 28.4904 9.0675 29.0748C10.8225 32.0212 13.6256 31.1933 14.7469 30.6819C14.9175 29.4157 15.4294 28.5634 15.99 28.0764C11.6512 27.5894 7.1175 25.9092 7.1175 18.4579C7.1175 16.3393 7.87313 14.5861 9.11625 13.2224C8.92125 12.7354 8.23875 10.7387 9.31125 8.06009C9.31125 8.06009 10.9444 7.54873 14.6737 10.0569C16.2337 9.61854 17.8913 9.39938 19.5488 9.39938C21.2063 9.39938 22.8638 9.61854 24.4238 10.0569C28.1531 7.52438 29.7863 8.06009 29.7863 8.06009C30.8587 10.7387 30.1763 12.7354 29.9813 13.2224C31.2244 14.5861 31.98 16.315 31.98 18.4579C31.98 25.9335 27.4219 27.5894 23.0831 28.0764C23.79 28.6852 24.3994 29.854 24.3994 31.6803C24.3994 34.2858 24.375 36.38 24.375 37.0375C24.375 37.5488 24.7406 38.1576 25.7156 37.9628C33.4181 35.3816 39 28.0764 39 19.4806C39 8.71756 30.2738 0 19.5 0Z" fill="url(#paint0_linear_9_2348)"/>
<defs>
<linearGradient id="paint0_linear_9_2348" x1="39" y1="19" x2="0" y2="19" gradientUnits="userSpaceOnUse">
<stop stop-color="#FFC700"/>
<stop offset="1" stop-color="#CC00FF"/>
</linearGradient>
</defs>
</svg>
