<svg width="40" height="38" viewBox="0 0 40 38" fill="none" xmlns="http://www.w3.org/2000/svg">
<path d="M37 2.60495C36.0499 1.81222 34.9351 1.24103 33.7367 0.932853C32.5383 0.624675 31.2863 0.587247 30.0717 0.823287L27.1317 1.54329C25.5974 1.82444 24.2103 2.63468 23.2118 3.83299C22.2132 5.0313 21.6665 6.54181 21.6667 8.10162V33.88C20.5614 34.0416 19.4386 34.0416 18.3333 33.88V8.10162C18.3389 6.55619 17.8047 5.0573 16.8231 3.86363C15.8416 2.66995 14.4741 1.85637 12.9567 1.56329L9.83333 0.803287C8.63193 0.583443 7.39689 0.630371 6.21563 0.940747C5.03437 1.25112 3.93578 1.81736 2.99761 2.59938C2.05944 3.38139 1.30464 4.36007 0.786637 5.46613C0.26863 6.57219 8.13541e-05 7.7786 0 8.99995L0 26.9883C9.57597e-05 28.9396 0.684961 30.829 1.93522 32.3272C3.18548 33.8254 4.92185 34.8373 6.84167 35.1866L17.3183 37.0916C19.0916 37.4138 20.9084 37.4138 22.6817 37.0916L33.1667 35.1866C35.085 34.8356 36.8194 33.8229 38.068 32.3249C39.3166 30.8269 40.0003 28.9384 40 26.9883V8.99995C40.0008 7.77903 39.7323 6.57295 39.2138 5.46761C38.6952 4.36227 37.9394 3.38485 37 2.60495V2.60495Z" fill="url(#paint0_linear_44_3)"/>
<defs>
<linearGradient id="paint0_linear_44_3" x1="40" y1="19.0002" x2="0" y2="19.0002" gradientUnits="userSpaceOnUse">
<stop stop-color="#CC00FF"/>
<stop offset="1" stop-color="#FFC700"/>
</linearGradient>
</defs>
</svg>
